<?xml version="1.0" encoding="utf-8"?>
<!-- Generator: Adobe Illustrator 23.0.1, SVG Export Plug-In . SVG Version: 6.00 Build 0)  -->
<svg version="1.1" id="Layer_1" xmlns="http://www.w3.org/2000/svg" xmlns:xlink="http://www.w3.org/1999/xlink" x="0px" y="0px"
	 viewBox="0 0 48 48" style="enable-background:new 0 0 48 48;" xml:space="preserve">
<image style="display:none;overflow:visible;" width="128" height="128" xlink:href="../../../../AppTiempo_v2/icons/50d.png"  transform="matrix(0.3835 0 0 0.3835 -1.1983 -1.1983)">
</image>
<g>
	<path d="M30.9,10.4c1.4,1.3,2.2,3.1,2.2,5.4c0,2.5-0.8,4.4-2.3,5.6c-1.5,1.3-3.7,1.9-6.3,2v4h-3.9v-6.7h1.7c2.1,0,3.7-0.3,4.9-1
		s1.8-1.9,1.8-3.8c0-1.2-0.4-2.2-1.1-2.9c-0.7-0.7-1.7-1.1-2.9-1.1c-1.3,0-2.3,0.4-3.1,1.1c-0.8,0.7-1.2,1.7-1.2,2.9h-3.9
		c0-1.4,0.3-2.7,1-3.8c0.7-1.1,1.6-2,2.9-2.6c1.3-0.6,2.8-1,4.5-1C27.6,8.4,29.5,9.1,30.9,10.4z M24.9,30.5v4.5h-4.7v-4.5H24.9z"/>
</g>
</svg>
